<svg width="12" height="20" viewBox="0 0 12 20" fill="none" xmlns="http://www.w3.org/2000/svg">
<path d="M9.12499 19.1L0.699988 10.7C0.599988 10.6 0.529321 10.4917 0.487988 10.375C0.445988 10.2584 0.424988 10.1334 0.424988 10C0.424988 9.86669 0.445988 9.74169 0.487988 9.62502C0.529321 9.50836 0.599988 9.40002 0.699988 9.30002L9.12499 0.875024C9.35832 0.641691 9.64999 0.525024 9.99999 0.525024C10.35 0.525024 10.65 0.650024 10.9 0.900024C11.15 1.15002 11.275 1.44169 11.275 1.77502C11.275 2.10836 11.15 2.40002 10.9 2.65002L3.54999 10L10.9 17.35C11.1333 17.5834 11.25 17.8707 11.25 18.212C11.25 18.554 11.125 18.85 10.875 19.1C10.625 19.35 10.3333 19.475 9.99999 19.475C9.66665 19.475 9.37499 19.35 9.12499 19.1Z" fill="#1C1B1F"/>
</svg>
