<svg width="90" height="90" viewBox="0 0 90 90" fill="none" xmlns="http://www.w3.org/2000/svg">
<path d="M38.8166 52.95L29.2103 43.3437C28.4006 42.534 27.4069 42.1292 26.2291 42.1292C25.0513 42.1292 24.0208 42.5708 23.1374 43.4541C22.3277 44.2639 21.9228 45.2944 21.9228 46.5458C21.9228 47.7972 22.3277 48.8278 23.1374 49.6375L35.7249 62.225C36.5346 63.0347 37.5652 63.4396 38.8166 63.4396C40.068 63.4396 41.0985 63.0347 41.9083 62.225L66.9728 37.1604C67.7826 36.3507 68.1874 35.3569 68.1874 34.1791C68.1874 33.0014 67.7458 31.9708 66.8624 31.0875C66.0527 30.2778 65.0221 29.8729 63.7708 29.8729C62.5194 29.8729 61.4888 30.2778 60.6791 31.0875L38.8166 52.95ZM44.9999 89.1667C38.8902 89.1667 33.1485 88.0065 27.7749 85.6863C22.4013 83.369 17.727 80.2229 13.752 76.2479C9.777 72.2729 6.63086 67.5986 4.31359 62.225C1.99336 56.8514 0.833252 51.1097 0.833252 45C0.833252 38.8903 1.99336 33.1486 4.31359 27.775C6.63086 22.4014 9.777 17.7271 13.752 13.7521C17.727 9.77706 22.4013 6.62945 27.7749 4.30923C33.1485 1.99195 38.8902 0.833313 44.9999 0.833313C51.1096 0.833313 56.8513 1.99195 62.2249 4.30923C67.5985 6.62945 72.2728 9.77706 76.2478 13.7521C80.2228 17.7271 83.369 22.4014 85.6863 27.775C88.0065 33.1486 89.1666 38.8903 89.1666 45C89.1666 51.1097 88.0065 56.8514 85.6863 62.225C83.369 67.5986 80.2228 72.2729 76.2478 76.2479C72.2728 80.2229 67.5985 83.369 62.2249 85.6863C56.8513 88.0065 51.1096 89.1667 44.9999 89.1667Z" fill="#3DAB70"/>
</svg>
