<svg width="22" height="21" viewBox="0 0 22 21" fill="none" xmlns="http://www.w3.org/2000/svg">
<path d="M16.25 20.125H5.70835V7.66671L12.4167 0.958374L13.6146 2.15629C13.7264 2.2681 13.8184 2.41983 13.8906 2.6115C13.9622 2.80317 13.9979 2.98685 13.9979 3.16254V3.49796L12.9438 7.66671H19.125C19.6361 7.66671 20.0834 7.85837 20.4667 8.24171C20.85 8.62504 21.0417 9.07226 21.0417 9.58337V11.5C21.0417 11.6118 21.0257 11.7316 20.9938 11.8594C20.9618 11.9872 20.9299 12.107 20.8979 12.2188L18.0229 18.975C17.8792 19.2945 17.6396 19.566 17.3042 19.7896C16.9688 20.0132 16.6174 20.125 16.25 20.125ZM7.62502 18.2084H16.25L19.125 11.5V9.58337H10.5L11.7938 4.31254L7.62502 8.48129V18.2084ZM5.70835 7.66671V9.58337H2.83335V18.2084H5.70835V20.125H0.916687V7.66671H5.70835Z" fill="#BBBBBB"/>
</svg>