<svg width="18" height="18" viewBox="0 0 18 18" fill="none" xmlns="http://www.w3.org/2000/svg">
<mask id="mask0_398_100" style="mask-type:alpha" maskUnits="userSpaceOnUse" x="0" y="0" width="18" height="18">
<rect width="18" height="18" fill="#D9D9D9"/>
</mask>
<g mask="url(#mask0_398_100)">
<path d="M5.25 16.5V9.6375C4.6125 9.4625 4.07825 9.1125 3.64725 8.5875C3.21575 8.0625 3 7.45 3 6.75V1.5H4.5V6.75H5.25V1.5H6.75V6.75H7.5V1.5H9V6.75C9 7.45 8.78425 8.0625 8.35275 8.5875C7.92175 9.1125 7.3875 9.4625 6.75 9.6375V16.5H5.25ZM12.75 16.5V10.5H10.5V5.25C10.5 4.2125 10.8658 3.32825 11.5972 2.59725C12.3282 1.86575 13.2125 1.5 14.25 1.5V16.5H12.75Z" fill="#3DAB55"/>
</g>
</svg>
