<svg width="19" height="19" viewBox="0 0 19 19" fill="none" xmlns="http://www.w3.org/2000/svg">
<path d="M17.5222 19L10.8722 12.35C10.3444 12.7722 9.7375 13.1065 9.05139 13.3528C8.36528 13.5991 7.63519 13.7222 6.86111 13.7222C4.94352 13.7222 3.32078 13.0583 1.99289 11.7304C0.664296 10.4018 0 8.7787 0 6.86111C0 4.94352 0.664296 3.32043 1.99289 1.99183C3.32078 0.663944 4.94352 0 6.86111 0C8.7787 0 10.4018 0.663944 11.7304 1.99183C13.0583 3.32043 13.7222 4.94352 13.7222 6.86111C13.7222 7.63518 13.5991 8.36528 13.3528 9.05139C13.1065 9.7375 12.7722 10.3444 12.35 10.8722L19 17.5222L17.5222 19ZM6.86111 11.6111C8.18056 11.6111 9.30226 11.1495 10.2262 10.2262C11.1495 9.30226 11.6111 8.18056 11.6111 6.86111C11.6111 5.54167 11.1495 4.41996 10.2262 3.496C9.30226 2.57274 8.18056 2.11111 6.86111 2.11111C5.54167 2.11111 4.41996 2.57274 3.496 3.496C2.57274 4.41996 2.11111 5.54167 2.11111 6.86111C2.11111 8.18056 2.57274 9.30226 3.496 10.2262C4.41996 11.1495 5.54167 11.6111 6.86111 11.6111Z" fill="#1C1B1F"/>
</svg>
