<svg width="14" height="19" viewBox="0 0 14 19" fill="none" xmlns="http://www.w3.org/2000/svg">
<path d="M3.125 18.25V10.2438C2.38125 10.0396 1.75796 9.63125 1.25512 9.01875C0.751708 8.40625 0.5 7.69167 0.5 6.875V0.75H2.25V6.875H3.125V0.75H4.875V6.875H5.75V0.75H7.5V6.875C7.5 7.69167 7.24829 8.40625 6.74487 9.01875C6.24204 9.63125 5.61875 10.0396 4.875 10.2438V18.25H3.125ZM11.875 18.25V11.25H9.25V5.125C9.25 3.91458 9.67671 2.88296 10.5301 2.03013C11.383 1.17671 12.4146 0.75 13.625 0.75V18.25H11.875Z" fill="currentColor"/>
</svg>
