<svg xmlns="http://www.w3.org/2000/svg" width="130" height="130" viewBox="0 0 130 130" fill="none">
    <mask id="mask0_1868_1271" style="mask-type:alpha" maskUnits="userSpaceOnUse" x="0" y="0" width="130" height="130">
        <rect width="130" height="130" fill="#D9D9D9"/>
    </mask>
    <g mask="url(#mask0_1868_1271)">
        <path d="M67.7084 69.2916V46.0417C67.7084 45.2709 67.4497 44.6268 66.9324 44.1094C66.4151 43.592 65.771 43.3333 65.0001 43.3333C64.2292 43.3333 63.5851 43.592 63.0678 44.1094C62.5505 44.6268 62.2918 45.2709 62.2918 46.0417V69.7604C62.2918 70.3437 62.3925 70.8871 62.5939 71.3906C62.7952 71.8941 63.132 72.3819 63.6042 72.8542L80.1251 89.375C80.6321 89.8819 81.2536 90.1528 81.9896 90.1875C82.7257 90.2223 83.382 89.9514 83.9584 89.375C84.5349 88.7986 84.8231 88.1597 84.8231 87.4583C84.8231 86.757 84.5349 86.1181 83.9584 85.5416L67.7084 69.2916ZM65.0001 113.75C58.9931 113.75 53.3629 112.62 48.1094 110.359C42.856 108.099 38.2657 105.005 34.3387 101.078C30.4116 97.151 27.3178 92.5608 25.0573 87.3073C22.797 82.0539 21.6668 76.4237 21.6668 70.4167C21.6668 64.4097 22.797 58.7795 25.0573 53.526C27.3178 48.2726 30.4116 43.6823 34.3387 39.7552C38.2657 35.8281 42.856 32.7344 48.1094 30.4739C53.3629 28.2135 58.9931 27.0833 65.0001 27.0833C71.0071 27.0833 76.6373 28.2135 81.8908 30.4739C87.1442 32.7344 91.7345 35.8281 95.6615 39.7552C99.5886 43.6823 102.682 48.2726 104.943 53.526C107.203 58.7795 108.333 64.4097 108.333 70.4167C108.333 76.4237 107.203 82.0539 104.943 87.3073C102.682 92.5608 99.5886 97.151 95.6615 101.078C91.7345 105.005 87.1442 108.099 81.8908 110.359C76.6373 112.62 71.0071 113.75 65.0001 113.75ZM15.0626 39.3334C14.4862 38.757 14.198 38.1181 14.198 37.4167C14.198 36.7152 14.4862 36.0764 15.0626 35.5L30.0835 20.4792C30.5904 19.9722 31.2119 19.7014 31.948 19.6667C32.6841 19.6319 33.3404 19.9028 33.9168 20.4792C34.4932 21.0555 34.7813 21.6944 34.7813 22.3959C34.7813 23.0973 34.4932 23.7361 33.9168 24.3124L18.8959 39.3334C18.389 39.8403 17.7674 40.1111 17.0313 40.1459C16.2952 40.1806 15.639 39.9097 15.0626 39.3334ZM114.938 39.3334C114.361 39.9097 113.722 40.1979 113.021 40.1979C112.32 40.1979 111.681 39.9097 111.104 39.3334L96.0834 24.3124C95.5765 23.8055 95.3056 23.184 95.2709 22.4479C95.2362 21.7118 95.507 21.0555 96.0834 20.4792C96.6598 19.9028 97.2987 19.6146 98.0001 19.6146C98.7015 19.6146 99.3404 19.9028 99.9167 20.4792L114.938 35.5C115.445 36.0069 115.715 36.6284 115.75 37.3646C115.785 38.1007 115.514 38.757 114.938 39.3334ZM65.0001 108.333C75.4932 108.333 84.4359 104.637 91.8282 97.2448C99.2206 89.8524 102.917 80.9098 102.917 70.4167C102.917 59.9236 99.2206 50.9809 91.8282 43.5886C84.4359 36.1962 75.4932 32.5 65.0001 32.5C54.507 32.5 45.5643 36.1962 38.172 43.5886C30.7796 50.9809 27.0834 59.9236 27.0834 70.4167C27.0834 80.9098 30.7796 89.8524 38.172 97.2448C45.5643 104.637 54.507 108.333 65.0001 108.333Z" fill="#3DAB55"/>
    </g>
</svg>